<svg width="24" height="24" viewBox="0 0 24 24" fill="none" xmlns="http://www.w3.org/2000/svg">
<path d="M18.49 6.48001C19.59 6.48001 20.49 5.58001 20.49 4.48001C20.49 3.38001 19.59 2.48001 18.49 2.48001C17.39 2.48001 16.49 3.38001 16.49 4.48001C16.49 5.58001 17.39 6.48001 18.49 6.48001ZM14.89 20.38L15.89 15.98L17.99 17.98V23.98H19.99V16.48L17.89 14.48L18.49 11.48C19.79 12.98 21.79 13.98 23.99 13.98V11.98C22.09 11.98 20.49 10.98 19.69 9.58001L18.69 7.98001C18.29 7.38001 17.69 6.98001 16.99 6.98001C16.69 6.98001 16.49 7.08001 16.19 7.08001L10.99 9.28001V13.98H12.99V10.58L14.79 9.88001L13.19 17.98L8.29 16.98L7.89 18.98L14.89 20.38Z" fill="black"/>
<rect x="4.76245" y="0.232178" width="8.66236" height="8.66236" transform="rotate(31.5326 4.76245 0.232178)" fill="black"/>
</svg>
