<svg id="logotipo" xmlns="http://www.w3.org/2000/svg" width="1079.983" height="614.425" viewBox="0 0 696 395.969">
  <defs>
    <style>
      .cls-1 {
        fill: #f8a0a0;
      }

      .cls-1, .cls-2 {
        fill-rule: evenodd;
      }

      .cls-2 {
        fill: #fff;
      }
    </style>
  </defs>
  <path id="ICON" class="cls-1" d="M857.955,469.914c13.82-87.231-43.676-157.036-128.42-155.913S564.887,386.75,551.067,473.982c-7.057,44.54,4.487,84.53,28.75,112.861l0,0.007,88.2,115.485L793.244,584.021v0C826.606,554.922,850.9,514.456,857.955,469.914ZM692,550.921c-42.372.562-71.12-34.34-64.21-77.956s46.861-79.429,89.234-79.991,71.12,34.341,64.21,77.957S734.371,550.36,692,550.921Z" transform="translate(-164 -314)"/>
  <path id="ENTREGO" class="cls-2" d="M226.157,561.446l-32.924,5.808V554.077l28.972-5.112v-22l-28.972,5.112V520.609l32.924-5.808V491.477l-58.414,10.306A4.663,4.663,0,0,0,164,506.189v74.562c0,8.275,6.705,13.8,14.975,12.341l47.183-8.324V561.446Zm35.223-29.8,30.948,41.448,29.236-5.158v-93.29L292.328,479.8v47.7l-30.948-42.24-29.234,5.157v93.291l29.234-5.158V531.645Zm90.666,30.912,29.236-5.158V487.3l24.758-4.368V459.741l-78.486,13.847V496.78l24.492-4.322v70.1Zm89.217-49.209,0.133-.024L458.911,543.7l32.132-5.669L470.762,505.9a36.677,36.677,0,0,0,14.947-13.047,32.025,32.025,0,0,0,5.2-17.519,26.856,26.856,0,0,0-4.017-14.907,21.741,21.741,0,0,0-12.05-8.81q-8.036-2.6-19.359-.6l-43.457,7.667v93.29l29.234-5.157V513.348Zm0-35.313,11.589-2.045q4.082-.72,6.256,1t2.174,5.414a9.046,9.046,0,0,1-2.108,6.368,10.9,10.9,0,0,1-6.322,3.026l-11.589,2.045V478.035Zm95.82,28.545-10.812,1.908V495.333l10.961-1.934a179.252,179.252,0,0,1,2.007-19.263c0.18-1.081.359-2.131,0.539-3.212l-13.507,2.384V461.86l16.023-2.827a189.406,189.406,0,0,1,7.846-24.728l-53.1,9.369v93.314l42.348-7.471A155.872,155.872,0,0,1,537.083,506.58ZM426.954,614.987l-62.169,10.969a4.662,4.662,0,0,0-3.744,4.406v23.115a3.056,3.056,0,0,0,3.744,3.085l21.437-3.782c3.544-.625,5.186,3.663,2.331,6.268a33.844,33.844,0,0,1-17.285,8.456q-15.63,2.758-23.155-3.907t-7.525-22.845q0-14.035,6.753-23.318t19.1-11.46a24.052,24.052,0,0,1,11.192.267,12.975,12.975,0,0,1,7.138,5.077l40.687-7.178a4.614,4.614,0,0,0,3.669-5.234q-4.058-18.481-19.175-27.511-16.887-10.08-43.7-5.351-21.034,3.711-36.662,15.339a79.1,79.1,0,0,0-12.854,11.989L237.6,607.334c-11.678,2.06-21.178,13.242-21.178,24.927s9.5,19.514,21.178,17.453l60.04-10.592c-0.3,3.045-.465,6.138-0.465,9.29a84.226,84.226,0,0,0,1.369,15.429l-19.5,3.44c-11.677,2.06-21.178,13.242-21.178,24.926s9.5,19.514,21.178,17.454l45.5-8.039a51.075,51.075,0,0,0,5.142,2.363q15.723,6.1,36.951,2.35,23.924-4.221,39.556-17.992A107.087,107.087,0,0,0,430.7,657.6V618.072A3.056,3.056,0,0,0,426.954,614.987Zm148.993-8.736-6.01-7.867a135.825,135.825,0,0,1-27.716-53.122,2.945,2.945,0,0,0-1.883-2.078c-10.115-3.469-21.185-4.1-33.234-1.978a83.673,83.673,0,0,0-35.4,15.206,87.248,87.248,0,0,0-25.576,29.5,79.194,79.194,0,0,0-9.434,37.774q0,20.092,9.434,34.444a52.612,52.612,0,0,0,25.576,20.6q16.128,6.234,35.4,2.8a82.522,82.522,0,0,0,35.22-15.264,87.061,87.061,0,0,0,25.486-29.608,79.4,79.4,0,0,0,8.766-27.946A3.384,3.384,0,0,0,575.947,606.251ZM526.81,629.906q-6.963,9.455-19.706,11.687c-8.6,1.517-15.244-.037-19.857-4.707q-6.963-6.952-6.948-20.89,0-14.068,6.948-23.52c4.613-6.268,11.261-10.2,19.857-11.714,8.505-1.5,15.064.1,19.706,4.734,4.612,4.67,6.948,11.689,6.948,21.069C533.758,615.854,531.422,623.638,526.81,629.906Z" transform="translate(-164 -314)"/>
</svg>
