<svg xmlns="http://www.w3.org/2000/svg" xmlns:xlink="http://www.w3.org/1999/xlink" width="512" height="364.937" viewBox="0 0 512 364.937">
  <defs>
    <style>
      .cls-1 {
        fill: #fff;
        fill-rule: evenodd;
      }
    </style>
    <clipPath id="clip-path">
      <rect x="0.5" y="-0.141" width="511" height="365"/>
    </clipPath>
  </defs>
  <g clip-path="url(#clip-path)">
    <path id="logotipo" class="cls-1" d="M123.169,350.882q15.758-9.17,25.274-19.824V246.809l-67.4,11.918v38.048l26.09-4.613v24.459a22.143,22.143,0,0,1-6.115,3.527,37.953,37.953,0,0,1-7.474,2.137q-23.918,4.228-35.058-7.117t-11.142-36.35A73.936,73.936,0,0,1,50.471,256.8,56.623,56.623,0,0,1,59.3,239.2,51.571,51.571,0,0,1,72.62,226.79,44.95,44.95,0,0,1,89.2,220.325q10.6-1.873,17.8.521a53.349,53.349,0,0,1,13.724,6.95l24.459-34.22q-9.516-7.827-23.78-12.237t-33.835-.947a105.033,105.033,0,0,0-33.7,12.21A106.245,106.245,0,0,0,25.74,215.648,107.769,107.769,0,0,0,6.58,248.115,113.461,113.461,0,0,0-.486,288.907q0,22.561,6.93,38.317t19.024,24.9a63.316,63.316,0,0,0,28.4,11.828,102.952,102.952,0,0,0,34.786-.58A104.115,104.115,0,0,0,123.169,350.882Zm153.82-27.064a91.512,91.512,0,0,0,25.954-22.662,103.681,103.681,0,0,0,16.713-32.035,128.476,128.476,0,0,0,5.979-40.056q0-21.739-5.979-37.534t-16.713-25.58a55.018,55.018,0,0,0-25.954-13.076q-15.224-3.282-33.428-.068A103.026,103.026,0,0,0,210,164.721a89.994,89.994,0,0,0-25.818,22.1,100.681,100.681,0,0,0-16.714,31.491,125.873,125.873,0,0,0-5.979,39.784q0,21.745,5.979,37.942t16.714,26.124A56.529,56.529,0,0,0,210,335.664q15.083,3.581,33.563.315A99.712,99.712,0,0,0,276.989,323.818Zm-58.566-37.611q-9.11-12.384-9.1-36.574t9.1-38.978q9.1-14.789,25.138-17.626t25.139,8.736q9.1,11.576,9.1,35.758t-9.1,39.793q-9.108,15.612-25.139,18.442T218.423,286.207ZM124.09,160.647V149.522l-19.932,3.525v-8.962l16.378-2.9V130.064l-16.378,2.9v-7.88l19.16-3.388V110.566L90.869,116.3v50.218Zm18.542-3.278V142.844a78.35,78.35,0,0,0-.618-9.625q-0.62-4.989-1.082-9.234l0.309-.055,4.79,10.355L157.157,154.8l13.6-2.4V102.178l-12.67,2.241v14.524q0,2.318.193,4.8t0.425,4.946q0.231,2.47.541,4.811t0.54,4.308l-0.309.054-4.79-10.432-11.125-20.438-13.6,2.405v50.217Zm58.252-10.3V107.975l13.289-2.349V94.5l-39.865,7.049v11.125l13.288-2.35v39.093Zm30.13-5.328V124.9l5.1-.9,8.653,15.312,14.834-2.623-10.893-17.542a20.139,20.139,0,0,0,5.91-6.608,18.881,18.881,0,0,0,2.2-9.351,15.2,15.2,0,0,0-1.623-7.555,10.235,10.235,0,0,0-4.365-4.211,15.389,15.389,0,0,0-6.412-1.493,37.044,37.044,0,0,0-7.687.587l-19.006,3.361V144.09Zm0-39.711,4.79-.847q3.941-.7,5.988.178t2.047,4.119q0,6.645-8.035,8.065l-4.79.847V102.029Zm64.742,28.263V119.167l-19.933,3.524v-8.962l16.379-2.9V99.708l-16.379,2.9v-7.88l19.16-3.388V80.211l-32.448,5.738v50.217Zm117.3,167.153s-93.466-75.824-98.172-183.983a129.79,129.79,0,0,1-.9-14.52,98.718,98.718,0,1,1,197.436,0q0,2.552-.125,5.273c0.042,0,.084,0,0.125,0,0.475,113.063-98.367,193.233-98.367,193.233M412.7,45.188a43.922,43.922,0,1,1-43.922,43.922A43.922,43.922,0,0,1,412.7,45.188Z" transform="translate(0.5 -0.141)"/>
  </g>
</svg>
