<svg xmlns="http://www.w3.org/2000/svg" viewBox="0 0 270.22 153.66"><title>logotipo_negativo</title><g id="Camada_2" data-name="Camada 2"><g id="svg5"><path d="M219.57,0c-32.9.43-63.93,28.22-69.29,62.07-2.74,17.28,1.74,32.8,11.16,43.79h0l34.24,44.81,48.62-45.91h0c13-11.29,22.39-27,25.13-44.28C274.79,26.66,252.47-.43,219.57,0ZM239.64,60.9C237,77.82,221.45,91.72,205,91.94s-27.61-13.33-24.93-30.25,18.2-30.82,34.65-31S242.32,44,239.64,60.9Z"/><path d="M24.13,96,11.35,98.27V93.16l11.25-2V82.64l-11.25,2V80.17l12.78-2.25v-9l-22.68,4A1.81,1.81,0,0,0,0,74.58v28.93a4.74,4.74,0,0,0,5.81,4.79l18.32-3.23Z"/><polygon points="37.81 84.46 49.82 100.54 61.17 98.54 61.17 62.34 49.82 64.34 49.82 82.85 37.81 66.46 26.46 68.46 26.46 104.66 37.81 102.66 37.81 84.46"/><polygon points="73.01 96.45 84.36 94.45 84.36 67.25 93.97 65.56 93.97 56.56 63.5 61.93 63.5 70.93 73.01 69.25 73.01 96.45"/><path d="M107.65,77.36h0l6.8,11.79L127,86.94,119.1,74.47a14.2,14.2,0,0,0,5.8-5.06,12.42,12.42,0,0,0,2-6.8,10.44,10.44,0,0,0-1.56-5.79,8.44,8.44,0,0,0-4.68-3.41,15.47,15.47,0,0,0-7.51-.24l-16.87,3V92.34l11.35-2Zm0-13.71,4.5-.79a3,3,0,0,1,2.43.39,2.53,2.53,0,0,1,.84,2.1,3.48,3.48,0,0,1-.82,2.47A4.26,4.26,0,0,1,112.15,69l-4.5.79Z"/><path d="M144.85,74.73l-4.2.74v-5.1l4.26-.75a66.61,66.61,0,0,1,.78-7.48l.21-1.24-5.25.92V57.38l6.22-1.1a72.58,72.58,0,0,1,3-9.59L129.3,50.32V86.53l16.44-2.9A60.58,60.58,0,0,1,144.85,74.73Z"/><path d="M102.09,116.8,78,121.05a1.81,1.81,0,0,0-1.45,1.71v9a1.19,1.19,0,0,0,1.45,1.2l8.33-1.47c1.37-.24,2,1.42.9,2.43a13.07,13.07,0,0,1-6.71,3.28q-6.06,1.08-9-1.51c-2-1.73-2.92-4.68-2.92-8.87a15,15,0,0,1,2.62-9.05,11.16,11.16,0,0,1,7.42-4.44,9.28,9.28,0,0,1,4.34.1,5.09,5.09,0,0,1,2.78,2l15.79-2.78a1.81,1.81,0,0,0,1.43-2,15.78,15.78,0,0,0-7.45-10.68q-6.55-3.91-17-2.08a33.12,33.12,0,0,0-14.23,6,30.26,30.26,0,0,0-5,4.65l-30.73,5.42a10.23,10.23,0,0,0-8.22,9.67,6.72,6.72,0,0,0,8.22,6.77l23.31-4.11c-.11,1.18-.18,2.38-.18,3.6a32.46,32.46,0,0,0,.54,6l-7.57,1.34a10.24,10.24,0,0,0-8.23,9.67,6.72,6.72,0,0,0,8.23,6.77l17.66-3.12a18.23,18.23,0,0,0,2,.92q6.11,2.37,14.34.91a30.73,30.73,0,0,0,15.36-7,41.52,41.52,0,0,0,9.52-11.93V118A1.19,1.19,0,0,0,102.09,116.8Z"/><path d="M157.6,110.35a52.87,52.87,0,0,1-10.76-20.61,1.15,1.15,0,0,0-.73-.81,25.56,25.56,0,0,0-12.9-.76,32.34,32.34,0,0,0-13.74,5.9,33.74,33.74,0,0,0-9.93,11.44,30.68,30.68,0,0,0-3.67,14.66,23.72,23.72,0,0,0,3.67,13.37,20.36,20.36,0,0,0,9.93,8,25.31,25.31,0,0,0,13.74,1.09,32,32,0,0,0,13.67-5.92,33.79,33.79,0,0,0,9.9-11.49,30.72,30.72,0,0,0,3.4-10.85,1.34,1.34,0,0,0-.24-1Zm-16.74,12.23a11.55,11.55,0,0,1-7.65,4.54c-3.34.59-5.92,0-7.71-1.83s-2.7-4.5-2.7-8.1a15,15,0,0,1,2.7-9.13,11.69,11.69,0,0,1,7.71-4.55c3.3-.58,5.85,0,7.65,1.84s2.7,4.54,2.7,8.18A14.86,14.86,0,0,1,140.86,122.58Z"/></g></g></svg>